<?xml version="1.0" encoding="UTF-8" standalone="no"?>
<!-- Created with Inkscape (http://www.inkscape.org/) -->

<svg
   width="100"
   height="100"
   viewBox="0 0 26.458333 26.458333"
   version="1.1"
   id="svg5"
   xmlns="http://www.w3.org/2000/svg"
   xmlns:svg="http://www.w3.org/2000/svg">
  <defs
     id="defs2" />
  <g
     id="layer1"
     style="fill:#ffff00;stroke:none">
    <circle
       style="fill:#ffff00;stroke:none;stroke-width:0.1"
       id="path254"
       cx="13.229167"
       cy="13.229167"
       r="13.179167" />
  </g>
  <path
     style="fill:#000000;stroke-width:0.1"
     id="path397"
     d="m 3.970242,10.254523 c 0.1015539,-0.3195194 6.410417,-0.3799724 6.680385,-0.5787774 0.269968,-0.198805 2.199991,-6.2055021 2.535255,-6.2076559 0.335263,-0.00215 2.342303,5.9792499 2.614803,6.1745709 0.2725,0.19532 6.581618,0.174711 6.687269,0.4928994 0.10565,0.318189 -4.962794,4.075352 -5.064348,4.394872 -0.101555,0.319521 1.867672,6.31348 1.597704,6.512285 -0.269968,0.198806 -5.409478,-3.460543 -5.744742,-3.45839 -0.335264,0.0022 -5.4273325,3.727234 -5.6998327,3.531914 C 7.3042351,20.920921 9.1962867,14.902155 9.0906364,14.583966 8.984986,14.265776 3.8686883,10.574043 3.970242,10.254523 Z" />
</svg>
