<?xml version="1.0" encoding="UTF-8" standalone="no"?>
<!-- Created with Inkscape (http://www.inkscape.org/) -->

<svg
   width="100"
   height="100"
   viewBox="0 0 26.458333 26.458333"
   version="1.1"
   id="svg5"
   xmlns="http://www.w3.org/2000/svg"
   xmlns:svg="http://www.w3.org/2000/svg">
  <defs
     id="defs2" />
  <g
     id="layer1"
     style="fill:#ffff00">
    <circle
       style="fill:#ffff00;stroke:#000000;stroke-width:0.1"
       id="path254"
       cx="13.229167"
       cy="13.229167"
       r="13.179167" />
  </g>
  <path
     style="fill:#000000;stroke-width:0.0768249"
     id="path397"
     d="m 7.4696612,14.404774 c 0.080159,-0.299157 5.8993338,-0.622556 6.1400238,-0.817462 0.24069,-0.194907 1.766895,-5.8196804 2.076181,-5.8358894 0.309285,-0.016209 2.41508,5.4182194 2.674825,5.5868994 0.259744,0.16868 6.080845,-0.117963 6.191835,0.171177 0.11099,0.289139 -4.406732,3.971199 -4.486891,4.270356 -0.08016,0.299157 1.991274,5.746775 1.750584,5.941682 -0.24069,0.194907 -5.13859,-2.963883 -5.447876,-2.947674 -0.309286,0.01621 -4.85017,3.669665 -5.109915,3.500985 -0.259745,-0.16868 1.230908,-5.80298 1.119918,-6.092119 -0.11099,-0.28914 -4.9888437,-3.478798 -4.9086848,-3.777955 z"
     transform="matrix(1.3002879,0.05977169,-0.05977169,1.3002879,-6.7557055,-9.0356658)" />
</svg>
