<?xml version="1.0" encoding="UTF-8" standalone="no"?>
<!-- Created with Inkscape (http://www.inkscape.org/) -->

<svg
   width="100"
   height="100"
   viewBox="0 0 26.458333 26.458333"
   version="1.1"
   id="svg5"
   xmlns="http://www.w3.org/2000/svg"
   xmlns:svg="http://www.w3.org/2000/svg">
  <defs
     id="defs2" />
  <g
     id="layer1-3"
     style="fill:#4d4d4d;stroke:none">
    <circle
       style="fill:#4d4d4d;stroke:none;stroke-width:0.1"
       id="path254-6"
       cx="13.229167"
       cy="13.229167"
       r="13.179167" />
  </g>
  <path
     id="rect1238"
     style="opacity:1;fill:#ffffff;stroke:none;stroke-width:0.0999996"
     d="m 12.714742,3.9687309 c -0.57003,0 -1.028937,0.4589073 -1.028937,1.0289376 v 0.4786971 c -0.01215,0.2801211 -0.120917,0.5034039 -0.378216,0.5723465 -0.27445,0.073539 -0.505911,-0.0981 -0.644291,-0.3528934 l -0.0012,4.019e-4 -0.211817,-0.3673628 C 10.165261,4.8351971 9.5383917,4.6672354 9.044731,4.9522505 L 8.153253,5.4667194 C 7.6595924,5.7517344 7.4916307,6.3786034 7.7766458,6.8722641 L 8.0182049,7.2906719 C 8.1458538,7.5380015 8.1621464,7.7841899 7.9747967,7.9715392 7.7738844,8.1724517 7.4873079,8.1394859 7.2400709,7.9880183 l -8.038e-4,4.02e-4 -0.366961,-0.2118165 C 6.3786454,7.4915887 5.7517764,7.6595504 5.4667614,8.153211 L 4.9522925,9.044689 c -0.2850151,0.4936607 -0.1170534,1.12053 0.3766073,1.405544 l 0.4143885,0.239148 c 0.236516,0.150585 0.3756146,0.356447 0.3066717,0.613746 -0.073539,0.274451 -0.3379657,0.388985 -0.6278128,0.38143 l -4.019e-4,0.0012 H 4.9977105 c -0.5700303,0 -1.0289376,0.458907 -1.0289376,1.028936 v 1.028939 c 0,0.57003 0.4589073,1.028937 1.0289376,1.028937 h 0.4786971 c 0.2801211,0.01215 0.5034039,0.120916 0.5723465,0.378215 0.07354,0.27445 -0.0981,0.505911 -0.3528934,0.644292 l 4.019e-4,0.0012 -0.3673628,0.211817 C 4.8352391,16.29312 4.6672777,16.919989 4.9522925,17.413649 l 0.5144689,0.891477 c 0.2850151,0.493662 0.911884,0.661624 1.4055447,0.376608 l 0.4143886,-0.239549 c 0.248668,-0.129537 0.4965312,-0.146957 0.6848865,0.0414 0.2009125,0.200914 0.1679467,0.487489 0.016479,0.734727 l 4.02e-4,7.78e-4 -0.2118164,0.366961 c -0.2850152,0.493661 -0.1170529,1.12053 0.3766071,1.405545 l 0.891478,0.514469 c 0.4936608,0.285015 1.1205301,0.117053 1.4055441,-0.376607 l 0.239148,-0.414393 c 0.150584,-0.236517 0.356447,-0.375616 0.613746,-0.306672 0.274451,0.07354 0.388985,0.337966 0.38143,0.627813 l 0.0012,4.01e-4 v 0.424059 c 0,0.570029 0.458907,1.028936 1.028936,1.028936 h 1.028938 c 0.570031,0 1.028938,-0.458907 1.028938,-1.028936 v -0.478698 c 0.01215,-0.280121 0.120916,-0.503404 0.378215,-0.572347 0.27445,-0.07353 0.505911,0.0981 0.644292,0.352894 l 0.0012,-4.02e-4 0.211816,0.367363 c 0.285016,0.493661 0.911884,0.661623 1.405546,0.376607 l 0.891477,-0.514468 c 0.49366,-0.285017 0.661623,-0.911885 0.376607,-1.405546 l -0.239625,-0.414388 c -0.129538,-0.248668 -0.146958,-0.496531 0.0414,-0.684887 0.200913,-0.200912 0.487489,-0.167944 0.734727,-0.01648 l 7.78e-4,-4.02e-4 0.366961,0.211817 c 0.49366,0.285015 1.120528,0.117053 1.405544,-0.376607 l 0.514491,-0.891477 c 0.285016,-0.493661 0.117054,-1.120529 -0.376607,-1.405545 l -0.414388,-0.239147 c -0.236516,-0.150585 -0.375615,-0.356447 -0.306671,-0.613746 0.07353,-0.274451 0.337965,-0.388986 0.627812,-0.38143 l 4.01e-4,-0.0012 h 0.424036 c 0.57003,0 1.028937,-0.458907 1.028937,-1.028937 v -1.028938 c 0,-0.57003 -0.458907,-1.028937 -1.028937,-1.028937 h -0.478698 c -0.28012,-0.01215 -0.503403,-0.120917 -0.572347,-0.378215 -0.07353,-0.274451 0.0981,-0.505912 0.352894,-0.644292 l -4.02e-4,-0.0012 0.367363,-0.211816 c 0.49375,-0.285003 0.661712,-0.9118722 0.376696,-1.405533 L 20.991661,8.153211 C 20.706646,7.659551 20.079777,7.4915886 19.586115,7.7766038 l -0.41921,0.2419611 C 18.919843,8.145837 18.673988,8.1619032 18.486841,7.9747547 18.285928,7.7738424 18.318896,7.4872659 18.470361,7.2400289 l -4.02e-4,-4.018e-4 0.211817,-0.367363 C 18.966792,6.3786034 18.79883,5.7517345 18.305168,5.4667194 L 17.413691,4.9522505 C 16.920031,4.6672357 16.293162,4.8351971 16.008146,5.3288578 l -0.23955,0.4147905 C 15.618039,5.9798769 15.41238,6.118815 15.155253,6.049918 14.880802,5.9763791 14.766267,5.7119523 14.773823,5.4221052 l -0.0012,-4.019e-4 V 4.9976685 c 0,-0.5700303 -0.458907,-1.0289376 -1.028937,-1.0289376 z M 13.229211,8.59895 a 4.6302191,4.6302191 0 0 1 4.630218,4.630219 4.6302191,4.6302191 0 0 1 -4.630218,4.630218 4.6302191,4.6302191 0 0 1 -4.630219,-4.630218 4.6302191,4.6302191 0 0 1 4.630219,-4.630219 z" />
</svg>
