<?xml version="1.0" encoding="UTF-8" standalone="no"?>
<!-- Created with Inkscape (http://www.inkscape.org/) -->

<svg
   width="100"
   height="100"
   viewBox="0 0 26.458333 26.458333"
   version="1.1"
   id="svg5"
   sodipodi:docname="hobbies.svg"
   inkscape:version="1.2.1 (9c6d41e410, 2022-07-14)"
   xml:space="preserve"
   xmlns:inkscape="http://www.inkscape.org/namespaces/inkscape"
   xmlns:sodipodi="http://sodipodi.sourceforge.net/DTD/sodipodi-0.dtd"
   xmlns="http://www.w3.org/2000/svg"
   xmlns:svg="http://www.w3.org/2000/svg"><sodipodi:namedview
     id="namedview853"
     pagecolor="#505050"
     bordercolor="#ffffff"
     borderopacity="1"
     inkscape:showpageshadow="0"
     inkscape:pageopacity="0"
     inkscape:pagecheckerboard="1"
     inkscape:deskcolor="#505050"
     showgrid="false"
     inkscape:zoom="3.9905909"
     inkscape:cx="109.257"
     inkscape:cy="51.621428"
     inkscape:window-width="1920"
     inkscape:window-height="1007"
     inkscape:window-x="0"
     inkscape:window-y="0"
     inkscape:window-maximized="1"
     inkscape:current-layer="svg5" /><defs
     id="defs2" /><g
     id="layer1"
     style="fill:#00ff00;stroke:none"><circle
       style="fill:#00ff00;stroke:none;stroke-width:0.1"
       id="path254"
       cx="13.229167"
       cy="13.229167"
       r="13.179167" /></g><path
     id="path1044"
     style="fill:#000000;stroke-width:0.529167"
     d="m 4.9386242,13.229167 2.7920661,2.792066 a 2.9311492,2.9311492 0 0 0 -2.2873476,0.848485 2.9311492,2.9311492 0 0 0 0,4.145271 2.9311492,2.9311492 0 0 0 4.1452708,0 2.9311492,2.9311492 0 0 0 0.8484855,-2.287347 l 2.792066,2.792065 2.506919,-2.506916 a 2.9311492,2.9311492 0 0 1 -1.702799,-0.834236 2.9311492,2.9311492 0 0 1 0,-4.14527 2.9311492,2.9311492 0 0 1 4.14527,0 2.9311492,2.9311492 0 0 1 0.834237,1.702798 l 2.506918,-2.506916 -2.791906,-2.791905 a 2.9311492,2.9311492 0 0 0 2.287186,-0.8486475 2.9311492,2.9311492 0 0 0 0,-4.1452707 2.9311492,2.9311492 0 0 0 -4.145271,0 2.9311492,2.9311492 0 0 0 -0.848647,2.2871854 L 13.229165,4.938625 10.722734,7.445056 a 2.9311492,2.9311492 0 0 1 1.702315,0.8347226 2.9311492,2.9311492 0 0 1 0,4.1452704 2.9311492,2.9311492 0 0 1 -4.1452719,0 2.9311492,2.9311492 0 0 1 -0.8342351,-1.702801 z" /></svg>
