<?xml version="1.0" encoding="UTF-8" standalone="no"?>
<!-- Created with Inkscape (http://www.inkscape.org/) -->

<svg
   width="100"
   height="100"
   viewBox="0 0 26.458333 26.458333"
   version="1.1"
   id="svg5"
   xmlns="http://www.w3.org/2000/svg"
   xmlns:svg="http://www.w3.org/2000/svg">
  <defs
     id="defs2" />
  <g
     id="layer1-3"
     style="fill:#4d4d4d;stroke:none">
    <circle
       style="fill:#4d4d4d;stroke:none;stroke-width:0.1"
       id="path254-6"
       cx="13.229167"
       cy="13.229167"
       r="13.179167" />
  </g>
  <path
     id="path342-3"
     style="opacity:1;fill:#ffffff;stroke-width:0.1"
     d="m 11.402501,3.728803 a 0.89224423,0.89224423 0 0 0 -0.885999,0.7857827 l -0.295743,2.4669729 c -0.0066,0.054547 -0.01448,0.1034405 -0.02168,0.1554385 A 6.8065707,6.8065707 0 0 0 9.4652465,7.5611806 L 7.0379509,6.5230149 A 0.89227906,0.89227906 0 0 0 5.9142944,6.8972945 L 4.0883008,10.060469 a 0.8921745,0.8921745 0 0 0 0.2376573,1.160061 l 1.9879764,1.489756 0.1243513,0.101853 a 6.8065707,6.8065707 0 0 0 -0.015953,0.416821 6.8065707,6.8065707 0 0 0 0.015953,0.426228 l -2.1123277,1.58261 A 0.89210231,0.89210231 0 0 0 4.0883008,16.39786 l 1.8259936,3.163175 a 0.89227897,0.89227897 0 0 0 1.1236565,0.374278 l 2.2845374,-0.976808 c 0.050596,-0.02164 0.096905,-0.03952 0.1456212,-0.05931 a 6.8065707,6.8065707 0 0 0 0.7342425,0.423368 l 0.314559,2.621185 a 0.89216575,0.89216575 0 0 0 0.88559,0.785782 h 3.652805 a 0.89233462,0.89233462 0 0 0 0.886,-0.785782 l 0.296151,-2.466974 c 0.0066,-0.05469 0.01445,-0.103717 0.02168,-0.155847 a 6.8065707,6.8065707 0 0 0 0.733833,-0.423775 l 2.427295,1.038166 a 0.89219523,0.89219523 0 0 0 1.123657,-0.374279 l 1.825994,-3.163174 a 0.89226488,0.89226488 0 0 0 -0.237654,-1.160472 l -1.988386,-1.490165 c -0.04337,-0.0325 -0.08247,-0.06306 -0.123942,-0.0949 a 6.8065707,6.8065707 0 0 0 0.01555,-0.423365 6.8065707,6.8065707 0 0 0 -0.0139,-0.427047 l 2.110678,-1.581385 A 0.89220967,0.89220967 0 0 0 22.369919,10.06047 L 20.543921,6.8972945 A 0.89229113,0.89229113 0 0 0 19.420265,6.5230149 l -2.283718,0.9763994 c -0.05016,0.021449 -0.09606,0.038871 -0.144395,0.058494 A 6.8065707,6.8065707 0 0 0 16.255046,7.1324975 L 15.940896,4.5145857 A 0.89219882,0.89219882 0 0 0 15.055306,3.728803 Z m 1.826402,5.8350805 A 3.6650769,3.6650769 0 0 1 16.89398,13.22896 3.6650769,3.6650769 0 0 1 13.228903,16.894036 3.6650769,3.6650769 0 0 1 9.5638271,13.22896 3.6650769,3.6650769 0 0 1 13.228903,9.5638835 Z" />
</svg>
