<?xml version="1.0" encoding="UTF-8" standalone="no"?>
<svg
   id="flag-icons-us"
   viewBox="0 0 20 15"
   version="1.1"
   width="20"
   height="15"
   xmlns="http://www.w3.org/2000/svg"
   xmlns:svg="http://www.w3.org/2000/svg">
  <defs
     id="defs17" />
  <g
     fill-rule="evenodd"
     id="g12"
     transform="scale(0.03125)"
     style="stroke-width:31.9998">
    <g
       stroke-width="31.9998pt"
       id="g6">
      <path
         fill="#bd3d44"
         d="M 0,0 H 912 V 37 H 0 Z m 0,73.9 h 912 v 37 H 0 Z m 0,73.8 h 912 v 37 H 0 Z m 0,73.8 h 912 v 37 H 0 Z m 0,74 h 912 v 36.8 H 0 Z m 0,73.7 h 912 v 37 H 0 Z M 0,443 h 912 v 37 H 0 Z"
         id="path2"
         style="stroke-width:45.2548pt" />
      <path
         fill="#ffffff"
         d="M 0,37 H 912 V 73.9 H 0 Z m 0,73.8 h 912 v 36.9 H 0 Z m 0,73.8 h 912 v 37 H 0 Z m 0,73.9 h 912 v 37 H 0 Z m 0,73.8 h 912 v 37 H 0 Z m 0,73.8 h 912 v 37 H 0 Z"
         id="path4"
         style="stroke-width:45.2548pt" />
    </g>
    <path
       fill="#192f5d"
       d="M 0,0 H 364.8 V 258.5 H 0 Z"
       id="path8"
       style="stroke-width:45.2548" />
    <path
       fill="#ffffff"
       d="m 30.4,11 3.4,10.3 h 10.6 l -8.6,6.3 3.3,10.3 -8.7,-6.4 -8.6,6.3 3.2,-10.2 -8.7,-6.3 h 10.9 z m 60.8,0 3.3,10.3 h 10.8 l -8.7,6.3 3.2,10.3 -8.6,-6.4 -8.7,6.3 3.3,-10.2 -8.6,-6.3 h 10.6 z m 60.8,0 3.3,10.3 H 166 l -8.6,6.3 3.3,10.3 -8.7,-6.4 -8.7,6.3 3.3,-10.2 -8.7,-6.3 h 10.8 z m 60.8,0 3.3,10.3 h 10.8 l -8.7,6.3 3.3,10.3 -8.7,-6.4 -8.7,6.3 3.4,-10.2 -8.8,-6.3 h 10.7 z m 60.8,0 3.3,10.3 h 10.7 l -8.6,6.3 3.3,10.3 -8.7,-6.4 -8.7,6.3 3.3,-10.2 -8.6,-6.3 h 10.7 z m 60.8,0 3.3,10.3 h 10.8 l -8.8,6.3 3.4,10.3 -8.7,-6.4 -8.7,6.3 3.4,-10.2 -8.8,-6.3 h 10.8 z M 60.8,37 64.1,47.2 H 75 L 66.3,53.4 69.5,63.7 61,57.4 52.3,63.7 55.4,53.4 47,47.2 h 10.7 z m 60.8,0 3.4,10.2 h 10.7 l -8.8,6.2 3.4,10.3 -8.7,-6.3 -8.7,6.3 3.3,-10.3 -8.7,-6.2 h 10.8 z m 60.8,0 3.3,10.2 h 10.8 l -8.7,6.2 3.3,10.3 -8.7,-6.3 -8.7,6.3 3.3,-10.3 -8.6,-6.2 H 179 Z m 60.8,0 3.4,10.2 h 10.7 l -8.8,6.2 3.4,10.3 -8.7,-6.3 -8.6,6.3 3.2,-10.3 -8.7,-6.2 H 240 Z m 60.8,0 3.3,10.2 h 10.8 l -8.7,6.2 3.3,10.3 -8.7,-6.3 -8.7,6.3 3.3,-10.3 -8.6,-6.2 h 10.7 z M 30.4,62.6 33.8,73 h 10.6 l -8.6,6.3 3.3,10.2 -8.7,-6.3 -8.6,6.3 L 25,79.3 16.3,73 h 10.9 z m 60.8,0 3.3,10.4 h 10.8 l -8.7,6.3 3.2,10.2 -8.6,-6.3 -8.7,6.3 3.3,-10.3 -8.6,-6.3 h 10.6 z m 60.8,0 3.3,10.3 H 166 l -8.6,6.3 3.3,10.2 -8.7,-6.3 -8.7,6.3 3.3,-10.3 -8.7,-6.3 h 10.8 z m 60.8,0 3.3,10.3 h 10.8 l -8.7,6.3 3.3,10.2 -8.7,-6.3 -8.7,6.3 3.4,-10.3 -8.8,-6.3 h 10.7 z m 60.8,0 3.3,10.3 h 10.7 l -8.6,6.3 3.3,10.2 -8.7,-6.3 -8.7,6.3 3.3,-10.3 -8.6,-6.3 h 10.7 z m 60.8,0 3.3,10.3 h 10.8 l -8.8,6.3 3.4,10.2 -8.7,-6.3 -8.7,6.3 3.4,-10.3 -8.8,-6.3 h 10.8 z m -273.6,26 3.3,10.2 H 75 l -8.7,6.3 3.3,10.3 -8.7,-6.4 -8.7,6.3 3.3,-10.2 -8.6,-6.3 h 10.7 z m 60.8,0 3.4,10.2 h 10.7 l -8.8,6.3 3.4,10.3 -8.7,-6.4 -8.7,6.3 3.3,-10.2 -8.7,-6.3 h 10.8 z m 60.8,0 3.3,10.2 h 10.8 l -8.7,6.3 3.3,10.3 -8.7,-6.4 -8.7,6.3 3.3,-10.2 -8.6,-6.3 H 179 Z m 60.8,0 3.4,10.2 h 10.7 l -8.7,6.3 3.3,10.3 -8.7,-6.4 -8.6,6.3 3.2,-10.2 -8.7,-6.3 H 240 Z m 60.8,0 3.3,10.2 h 10.8 l -8.7,6.3 3.3,10.3 -8.7,-6.4 -8.7,6.3 3.3,-10.2 -8.6,-6.3 h 10.7 z m -273.6,25.9 3.4,10.2 h 10.6 l -8.6,6.3 3.3,10.3 -8.7,-6.4 -8.6,6.3 3.2,-10.2 -8.7,-6.3 h 10.9 z m 60.8,0 3.3,10.2 h 10.8 l -8.7,6.3 3.2,10.2 -8.6,-6.3 -8.7,6.3 3.3,-10.2 -8.6,-6.3 h 10.6 z m 60.8,0 3.3,10.2 H 166 l -8.6,6.3 3.3,10.3 -8.7,-6.4 -8.7,6.3 3.3,-10.2 -8.7,-6.3 h 10.8 z m 60.8,0 3.3,10.2 h 10.8 l -8.7,6.3 3.3,10.3 -8.7,-6.4 -8.7,6.3 3.4,-10.2 -8.8,-6.3 h 10.7 z m 60.8,0 3.3,10.2 h 10.7 l -8.6,6.3 3.3,10.3 -8.7,-6.4 -8.7,6.3 3.3,-10.2 -8.6,-6.3 h 10.7 z m 60.8,0 3.3,10.2 h 10.8 l -8.8,6.3 3.4,10.3 -8.7,-6.4 -8.7,6.3 3.3,-10.2 -8.8,-6.3 H 331 Z m -273.6,25.8 3.3,10.3 H 75 l -8.7,6.2 3.3,10.3 -8.7,-6.4 -8.7,6.4 3.3,-10.3 -8.6,-6.3 h 10.7 z m 60.8,0 3.4,10.3 h 10.7 l -8.8,6.2 3.4,10.3 -8.7,-6.4 -8.7,6.4 3.3,-10.3 -8.7,-6.3 h 10.8 z m 60.8,0 3.3,10.3 h 10.8 l -8.7,6.2 3.3,10.3 -8.7,-6.4 -8.7,6.4 3.3,-10.3 -8.6,-6.3 H 179 Z m 60.8,0 3.4,10.3 h 10.7 l -8.7,6.2 3.3,10.3 -8.7,-6.4 -8.6,6.4 3.2,-10.3 -8.7,-6.3 H 240 Z m 60.8,0 3.3,10.3 h 10.8 l -8.7,6.2 3.3,10.3 -8.7,-6.4 -8.7,6.4 3.3,-10.3 -8.6,-6.3 h 10.7 z m -273.6,25.8 3.4,10.3 h 10.6 l -8.6,6.3 3.3,10.1 -8.7,-6.2 -8.6,6.2 3.2,-10.2 -8.7,-6.3 h 10.9 z m 60.8,0 3.3,10.3 h 10.8 l -8.7,6.3 3.3,10.1 -8.7,-6.2 -8.7,6.2 3.4,-10.2 -8.7,-6.3 h 10.6 z m 60.8,0 3.3,10.3 H 166 l -8.6,6.3 3.3,10.1 -8.7,-6.2 -8.7,6.2 3.3,-10.2 -8.7,-6.3 h 10.8 z m 60.8,0 3.3,10.3 h 10.8 l -8.7,6.3 3.3,10.1 -8.7,-6.2 -8.7,6.2 3.4,-10.2 -8.8,-6.3 h 10.7 z m 60.8,0 3.3,10.3 h 10.7 l -8.6,6.3 3.3,10.1 -8.7,-6.2 -8.7,6.2 3.3,-10.2 -8.6,-6.3 h 10.7 z m 60.8,0 3.3,10.3 h 10.8 l -8.8,6.3 3.4,10.1 -8.7,-6.2 -8.7,6.2 3.4,-10.2 -8.8,-6.3 h 10.8 z M 60.8,192 64.1,202.2 H 75 l -8.7,6.3 3.3,10.3 -8.7,-6.4 -8.7,6.3 3.3,-10.2 -8.6,-6.3 h 10.7 z m 60.8,0 3.4,10.2 h 10.7 l -8.8,6.3 3.4,10.3 -8.7,-6.4 -8.7,6.3 3.3,-10.2 -8.7,-6.3 h 10.8 z m 60.8,0 3.3,10.2 h 10.8 l -8.7,6.3 3.3,10.3 -8.7,-6.4 -8.7,6.3 3.3,-10.2 -8.6,-6.3 H 179 Z m 60.8,0 3.4,10.2 h 10.7 l -8.7,6.3 3.3,10.3 -8.7,-6.4 -8.6,6.3 3.2,-10.2 -8.7,-6.3 H 240 Z m 60.8,0 3.3,10.2 h 10.8 l -8.7,6.3 3.3,10.3 -8.7,-6.4 -8.7,6.3 3.3,-10.2 -8.6,-6.3 h 10.7 z m -273.6,25.9 3.4,10.2 h 10.6 l -8.6,6.3 3.3,10.2 -8.7,-6.3 -8.6,6.3 3.2,-10.3 -8.7,-6.3 h 10.9 z m 60.8,0 3.3,10.2 h 10.8 l -8.7,6.3 3.3,10.2 -8.7,-6.3 -8.7,6.3 3.4,-10.3 -8.7,-6.3 h 10.6 z m 60.8,0 3.3,10.2 H 166 l -8.4,6.3 3.3,10.2 -8.7,-6.3 -8.7,6.3 3.3,-10.3 -8.7,-6.3 h 10.8 z m 60.8,0 3.3,10.2 h 10.8 l -8.7,6.3 3.3,10.2 -8.7,-6.3 -8.7,6.3 3.4,-10.3 -8.8,-6.3 h 10.7 z m 60.8,0 3.3,10.2 h 10.7 l -8.6,6.3 3.3,10.2 -8.7,-6.3 -8.7,6.3 3.3,-10.3 -8.6,-6.3 h 10.7 z m 60.8,0 3.3,10.2 h 10.8 l -8.8,6.3 3.4,10.2 -8.7,-6.3 -8.7,6.3 3.4,-10.3 -8.8,-6.3 h 10.8 z"
       id="path10"
       style="stroke-width:45.2548" />
  </g>
</svg>
